<svg width="69" height="79" viewBox="0 0 69 79" fill="none" xmlns="http://www.w3.org/2000/svg">
<path d="M5.43018 52.0122H2.72754L2.71289 50.877H5.1665C5.57178 50.877 5.92578 50.8086 6.22852 50.6719C6.53125 50.5352 6.76562 50.3398 6.93164 50.0859C7.10254 49.8271 7.18799 49.5195 7.18799 49.1631C7.18799 48.7725 7.1123 48.4551 6.96094 48.2109C6.81445 47.9619 6.5874 47.7812 6.27979 47.6689C5.97705 47.5518 5.59131 47.4932 5.12256 47.4932H3.04248V57H1.62891V46.3359H5.12256C5.66943 46.3359 6.15771 46.3921 6.5874 46.5044C7.01709 46.6118 7.38086 46.7827 7.67871 47.0171C7.98145 47.2466 8.21094 47.5396 8.36719 47.896C8.52344 48.2524 8.60156 48.6797 8.60156 49.1777C8.60156 49.6172 8.48926 50.0151 8.26465 50.3716C8.04004 50.7231 7.72754 51.0112 7.32715 51.2358C6.93164 51.4604 6.46777 51.6045 5.93555 51.668L5.43018 52.0122ZM5.36426 57H2.1709L2.96924 55.8501H5.36426C5.81348 55.8501 6.19434 55.772 6.50684 55.6157C6.82422 55.4595 7.06592 55.2397 7.23193 54.9565C7.39795 54.6685 7.48096 54.3291 7.48096 53.9385C7.48096 53.543 7.41016 53.2012 7.26855 52.9131C7.12695 52.625 6.90479 52.4028 6.60205 52.2466C6.29932 52.0903 5.90869 52.0122 5.43018 52.0122H3.41602L3.43066 50.877H6.18457L6.48486 51.2871C6.99756 51.3311 7.43213 51.4775 7.78857 51.7266C8.14502 51.9707 8.41602 52.2832 8.60156 52.6641C8.79199 53.0449 8.88721 53.4648 8.88721 53.9238C8.88721 54.5879 8.74072 55.1494 8.44775 55.6084C8.15967 56.0625 7.75195 56.4092 7.22461 56.6484C6.69727 56.8828 6.07715 57 5.36426 57ZM10.4106 53.1255V52.957C10.4106 52.3857 10.4937 51.856 10.6597 51.3677C10.8257 50.8745 11.0649 50.4473 11.3774 50.0859C11.6899 49.7197 12.0684 49.4365 12.5127 49.2363C12.957 49.0312 13.4551 48.9287 14.0068 48.9287C14.5635 48.9287 15.064 49.0312 15.5083 49.2363C15.9575 49.4365 16.3384 49.7197 16.6509 50.0859C16.9683 50.4473 17.21 50.8745 17.376 51.3677C17.542 51.856 17.625 52.3857 17.625 52.957V53.1255C17.625 53.6968 17.542 54.2266 17.376 54.7148C17.21 55.2031 16.9683 55.6304 16.6509 55.9966C16.3384 56.3579 15.96 56.6411 15.5156 56.8462C15.0762 57.0464 14.5781 57.1465 14.0215 57.1465C13.4648 57.1465 12.9644 57.0464 12.52 56.8462C12.0757 56.6411 11.6948 56.3579 11.3774 55.9966C11.0649 55.6304 10.8257 55.2031 10.6597 54.7148C10.4937 54.2266 10.4106 53.6968 10.4106 53.1255ZM11.7656 52.957V53.1255C11.7656 53.521 11.812 53.8945 11.9048 54.2461C11.9976 54.5928 12.1367 54.9004 12.3223 55.1689C12.5127 55.4375 12.7495 55.6499 13.0327 55.8062C13.3159 55.9575 13.6455 56.0332 14.0215 56.0332C14.3926 56.0332 14.7173 55.9575 14.9956 55.8062C15.2788 55.6499 15.5132 55.4375 15.6987 55.1689C15.8843 54.9004 16.0234 54.5928 16.1162 54.2461C16.2139 53.8945 16.2627 53.521 16.2627 53.1255V52.957C16.2627 52.5664 16.2139 52.1978 16.1162 51.8511C16.0234 51.4995 15.8818 51.1895 15.6914 50.9209C15.5059 50.6475 15.2715 50.4326 14.9883 50.2764C14.71 50.1201 14.3828 50.042 14.0068 50.042C13.6357 50.042 13.3086 50.1201 13.0254 50.2764C12.7471 50.4326 12.5127 50.6475 12.3223 50.9209C12.1367 51.1895 11.9976 51.4995 11.9048 51.8511C11.812 52.1978 11.7656 52.5664 11.7656 52.957ZM18.9653 53.1255V52.957C18.9653 52.3857 19.0483 51.856 19.2144 51.3677C19.3804 50.8745 19.6196 50.4473 19.9321 50.0859C20.2446 49.7197 20.623 49.4365 21.0674 49.2363C21.5117 49.0312 22.0098 48.9287 22.5615 48.9287C23.1182 48.9287 23.6187 49.0312 24.063 49.2363C24.5122 49.4365 24.8931 49.7197 25.2056 50.0859C25.5229 50.4473 25.7646 50.8745 25.9307 51.3677C26.0967 51.856 26.1797 52.3857 26.1797 52.957V53.1255C26.1797 53.6968 26.0967 54.2266 25.9307 54.7148C25.7646 55.2031 25.5229 55.6304 25.2056 55.9966C24.8931 56.3579 24.5146 56.6411 24.0703 56.8462C23.6309 57.0464 23.1328 57.1465 22.5762 57.1465C22.0195 57.1465 21.519 57.0464 21.0747 56.8462C20.6304 56.6411 20.2495 56.3579 19.9321 55.9966C19.6196 55.6304 19.3804 55.2031 19.2144 54.7148C19.0483 54.2266 18.9653 53.6968 18.9653 53.1255ZM20.3203 52.957V53.1255C20.3203 53.521 20.3667 53.8945 20.4595 54.2461C20.5522 54.5928 20.6914 54.9004 20.877 55.1689C21.0674 55.4375 21.3042 55.6499 21.5874 55.8062C21.8706 55.9575 22.2002 56.0332 22.5762 56.0332C22.9473 56.0332 23.272 55.9575 23.5503 55.8062C23.8335 55.6499 24.0679 55.4375 24.2534 55.1689C24.439 54.9004 24.5781 54.5928 24.6709 54.2461C24.7686 53.8945 24.8174 53.521 24.8174 53.1255V52.957C24.8174 52.5664 24.7686 52.1978 24.6709 51.8511C24.5781 51.4995 24.4365 51.1895 24.2461 50.9209C24.0605 50.6475 23.8262 50.4326 23.543 50.2764C23.2646 50.1201 22.9375 50.042 22.5615 50.042C22.1904 50.042 21.8633 50.1201 21.5801 50.2764C21.3018 50.4326 21.0674 50.6475 20.877 50.9209C20.6914 51.1895 20.5522 51.4995 20.4595 51.8511C20.3667 52.1978 20.3203 52.5664 20.3203 52.957ZM29.2412 45.75V57H27.8789V45.75H29.2412ZM34.0825 49.0752L30.6255 52.7739L28.6919 54.7808L28.582 53.3379L29.9663 51.6826L32.4272 49.0752H34.0825ZM32.8447 57L30.0176 53.2207L30.7207 52.0122L34.4414 57H32.8447ZM39.8979 46.3359L42.6665 51.6899L45.4424 46.3359H47.0464L43.3696 53.0156V57H41.9561V53.0156L38.2793 46.3359H39.8979ZM47.3687 53.1255V52.957C47.3687 52.3857 47.4517 51.856 47.6177 51.3677C47.7837 50.8745 48.0229 50.4473 48.3354 50.0859C48.6479 49.7197 49.0264 49.4365 49.4707 49.2363C49.915 49.0312 50.4131 48.9287 50.9648 48.9287C51.5215 48.9287 52.022 49.0312 52.4663 49.2363C52.9155 49.4365 53.2964 49.7197 53.6089 50.0859C53.9263 50.4473 54.168 50.8745 54.334 51.3677C54.5 51.856 54.583 52.3857 54.583 52.957V53.1255C54.583 53.6968 54.5 54.2266 54.334 54.7148C54.168 55.2031 53.9263 55.6304 53.6089 55.9966C53.2964 56.3579 52.918 56.6411 52.4736 56.8462C52.0342 57.0464 51.5361 57.1465 50.9795 57.1465C50.4229 57.1465 49.9224 57.0464 49.478 56.8462C49.0337 56.6411 48.6528 56.3579 48.3354 55.9966C48.0229 55.6304 47.7837 55.2031 47.6177 54.7148C47.4517 54.2266 47.3687 53.6968 47.3687 53.1255ZM48.7236 52.957V53.1255C48.7236 53.521 48.77 53.8945 48.8628 54.2461C48.9556 54.5928 49.0947 54.9004 49.2803 55.1689C49.4707 55.4375 49.7075 55.6499 49.9907 55.8062C50.2739 55.9575 50.6035 56.0332 50.9795 56.0332C51.3506 56.0332 51.6753 55.9575 51.9536 55.8062C52.2368 55.6499 52.4712 55.4375 52.6567 55.1689C52.8423 54.9004 52.9814 54.5928 53.0742 54.2461C53.1719 53.8945 53.2207 53.521 53.2207 53.1255V52.957C53.2207 52.5664 53.1719 52.1978 53.0742 51.8511C52.9814 51.4995 52.8398 51.1895 52.6494 50.9209C52.4639 50.6475 52.2295 50.4326 51.9463 50.2764C51.668 50.1201 51.3408 50.042 50.9648 50.042C50.5938 50.042 50.2666 50.1201 49.9834 50.2764C49.7051 50.4326 49.4707 50.6475 49.2803 50.9209C49.0947 51.1895 48.9556 51.4995 48.8628 51.8511C48.77 52.1978 48.7236 52.5664 48.7236 52.957ZM61.1309 55.1689V49.0752H62.4932V57H61.1968L61.1309 55.1689ZM61.3872 53.499L61.9512 53.4844C61.9512 54.0117 61.895 54.5 61.7827 54.9492C61.6753 55.3936 61.4995 55.7793 61.2554 56.1064C61.0112 56.4336 60.6914 56.6899 60.2959 56.8755C59.9004 57.0562 59.4194 57.1465 58.853 57.1465C58.4673 57.1465 58.1133 57.0903 57.791 56.978C57.4736 56.8657 57.2002 56.6924 56.9707 56.458C56.7412 56.2236 56.563 55.9185 56.436 55.5425C56.314 55.1665 56.2529 54.7148 56.2529 54.1875V49.0752H57.6079V54.2021C57.6079 54.5586 57.647 54.854 57.7251 55.0884C57.8081 55.3179 57.918 55.501 58.0547 55.6377C58.1963 55.7695 58.3525 55.8623 58.5234 55.916C58.6992 55.9697 58.8799 55.9966 59.0654 55.9966C59.6416 55.9966 60.0981 55.8867 60.4351 55.667C60.772 55.4424 61.0137 55.1421 61.1602 54.7661C61.3115 54.3853 61.3872 53.9629 61.3872 53.499ZM65.9136 50.3203V57H64.5586V49.0752H65.877L65.9136 50.3203ZM68.3892 49.0312L68.3818 50.291C68.2695 50.2666 68.1621 50.252 68.0596 50.2471C67.9619 50.2373 67.8496 50.2324 67.7227 50.2324C67.4102 50.2324 67.1343 50.2812 66.895 50.3789C66.6558 50.4766 66.4531 50.6133 66.2871 50.7891C66.1211 50.9648 65.9893 51.1748 65.8916 51.4189C65.7988 51.6582 65.7378 51.9219 65.7085 52.21L65.3276 52.4297C65.3276 51.9512 65.374 51.502 65.4668 51.082C65.5645 50.6621 65.7134 50.291 65.9136 49.9688C66.1138 49.6416 66.3677 49.3877 66.6753 49.207C66.9878 49.0215 67.3589 48.9287 67.7886 48.9287C67.8862 48.9287 67.9985 48.9409 68.1255 48.9653C68.2524 48.9849 68.3403 49.0068 68.3892 49.0312ZM24.4292 73.3813L27.5713 64.3359H29.1021L25.1543 75H24.063L24.4292 73.3813ZM21.4922 64.3359L24.605 73.3813L24.9932 75H23.9019L19.9614 64.3359H21.4922ZM31.8047 67.0752V75H30.4424V67.0752H31.8047ZM30.3398 64.9731C30.3398 64.7534 30.4058 64.5679 30.5376 64.4165C30.6743 64.2651 30.8745 64.1895 31.1382 64.1895C31.397 64.1895 31.5947 64.2651 31.7314 64.4165C31.873 64.5679 31.9438 64.7534 31.9438 64.9731C31.9438 65.1831 31.873 65.3638 31.7314 65.5151C31.5947 65.6616 31.397 65.7349 31.1382 65.7349C30.8745 65.7349 30.6743 65.6616 30.5376 65.5151C30.4058 65.3638 30.3398 65.1831 30.3398 64.9731ZM38.5942 72.8979C38.5942 72.7026 38.5503 72.522 38.4624 72.356C38.3794 72.1851 38.2061 72.0312 37.9424 71.8945C37.6836 71.7529 37.293 71.6309 36.7705 71.5283C36.3311 71.4355 35.9331 71.3257 35.5767 71.1987C35.2251 71.0718 34.9248 70.918 34.6758 70.7373C34.4316 70.5566 34.2437 70.3442 34.1118 70.1001C33.98 69.856 33.9141 69.5703 33.9141 69.2432C33.9141 68.9307 33.9824 68.6353 34.1191 68.3569C34.2607 68.0786 34.4585 67.832 34.7124 67.6172C34.9712 67.4023 35.2812 67.2339 35.6426 67.1118C36.0039 66.9897 36.4067 66.9287 36.8511 66.9287C37.4858 66.9287 38.0278 67.041 38.4771 67.2656C38.9263 67.4902 39.2705 67.7905 39.5098 68.1665C39.749 68.5376 39.8687 68.9502 39.8687 69.4043H38.5137C38.5137 69.1846 38.4478 68.9722 38.3159 68.7671C38.189 68.5571 38.001 68.3838 37.752 68.2471C37.5078 68.1104 37.2075 68.042 36.8511 68.042C36.4751 68.042 36.1699 68.1006 35.9355 68.2178C35.7061 68.3301 35.5376 68.4741 35.4302 68.6499C35.3276 68.8257 35.2764 69.0112 35.2764 69.2065C35.2764 69.353 35.3008 69.4849 35.3496 69.6021C35.4033 69.7144 35.4961 69.8193 35.6279 69.917C35.7598 70.0098 35.9453 70.0977 36.1846 70.1807C36.4238 70.2637 36.729 70.3467 37.1001 70.4297C37.7495 70.5762 38.2842 70.752 38.7041 70.957C39.124 71.1621 39.4365 71.4136 39.6416 71.7114C39.8467 72.0093 39.9492 72.3706 39.9492 72.7954C39.9492 73.1421 39.876 73.4595 39.7295 73.7476C39.5879 74.0356 39.3804 74.2847 39.1069 74.4946C38.8384 74.6997 38.5161 74.8608 38.1401 74.978C37.769 75.0903 37.3516 75.1465 36.8877 75.1465C36.1895 75.1465 35.5986 75.022 35.1152 74.7729C34.6318 74.5239 34.2656 74.2017 34.0166 73.8062C33.7676 73.4106 33.6431 72.9932 33.6431 72.5537H35.0054C35.0249 72.9248 35.1323 73.2202 35.3276 73.4399C35.5229 73.6548 35.7622 73.8086 36.0454 73.9014C36.3286 73.9893 36.6094 74.0332 36.8877 74.0332C37.2588 74.0332 37.5688 73.9844 37.8179 73.8867C38.0718 73.7891 38.2646 73.6548 38.3965 73.4839C38.5283 73.313 38.5942 73.1177 38.5942 72.8979ZM43.2012 67.0752V75H41.8389V67.0752H43.2012ZM41.7363 64.9731C41.7363 64.7534 41.8022 64.5679 41.9341 64.4165C42.0708 64.2651 42.271 64.1895 42.5347 64.1895C42.7935 64.1895 42.9912 64.2651 43.1279 64.4165C43.2695 64.5679 43.3403 64.7534 43.3403 64.9731C43.3403 65.1831 43.2695 65.3638 43.1279 65.5151C42.9912 65.6616 42.7935 65.7349 42.5347 65.7349C42.271 65.7349 42.0708 65.6616 41.9341 65.5151C41.8022 65.3638 41.7363 65.1831 41.7363 64.9731ZM48.6943 67.0752V68.1152H44.4097V67.0752H48.6943ZM45.8599 65.1489H47.2148V73.0371C47.2148 73.3057 47.2563 73.5083 47.3394 73.645C47.4224 73.7817 47.5298 73.8721 47.6616 73.916C47.7935 73.96 47.9351 73.9819 48.0864 73.9819C48.1987 73.9819 48.3159 73.9722 48.438 73.9526C48.5649 73.9282 48.6602 73.9087 48.7236 73.894L48.731 75C48.6235 75.0342 48.4819 75.0659 48.3062 75.0952C48.1353 75.1294 47.9277 75.1465 47.6836 75.1465C47.3516 75.1465 47.0464 75.0806 46.7681 74.9487C46.4897 74.8169 46.2676 74.5972 46.1016 74.2896C45.9404 73.9771 45.8599 73.5571 45.8599 73.0298V65.1489Z" fill="white"/>
<path d="M20.1562 32.6562C20.1562 33.3131 20.6869 33.8438 21.3438 33.8438H48.6562C49.3131 33.8438 49.8438 33.3131 49.8438 32.6562V17.0703H20.1562V32.6562ZM48.6562 6.82812H42.4219V4.45312C42.4219 4.28984 42.2883 4.15625 42.125 4.15625H40.0469C39.8836 4.15625 39.75 4.28984 39.75 4.45312V6.82812H30.25V4.45312C30.25 4.28984 30.1164 4.15625 29.9531 4.15625H27.875C27.7117 4.15625 27.5781 4.28984 27.5781 4.45312V6.82812H21.3438C20.6869 6.82812 20.1562 7.35879 20.1562 8.01562V14.5469H49.8438V8.01562C49.8438 7.35879 49.3131 6.82812 48.6562 6.82812Z" fill="white"/>
</svg>
