<svg width="55" height="67" viewBox="0 0 55 67" fill="none" xmlns="http://www.w3.org/2000/svg">
<g filter="url(#filter0_d_42_2214)">
<path d="M11.3335 48.9209V50.0708H5.56201V48.9209H11.3335ZM5.78174 44.3359V55H4.36816V44.3359H5.78174ZM12.564 44.3359V55H11.1577V44.3359H12.564ZM16.3433 47.0752V55H14.981V47.0752H16.3433ZM14.8784 44.9731C14.8784 44.7534 14.9443 44.5679 15.0762 44.4165C15.2129 44.2651 15.4131 44.1895 15.6768 44.1895C15.9355 44.1895 16.1333 44.2651 16.27 44.4165C16.4116 44.5679 16.4824 44.7534 16.4824 44.9731C16.4824 45.1831 16.4116 45.3638 16.27 45.5151C16.1333 45.6616 15.9355 45.7349 15.6768 45.7349C15.4131 45.7349 15.2129 45.6616 15.0762 45.5151C14.9443 45.3638 14.8784 45.1831 14.8784 44.9731ZM23.1328 52.8979C23.1328 52.7026 23.0889 52.522 23.001 52.356C22.918 52.1851 22.7446 52.0312 22.481 51.8945C22.2222 51.7529 21.8315 51.6309 21.3091 51.5283C20.8696 51.4355 20.4717 51.3257 20.1152 51.1987C19.7637 51.0718 19.4634 50.918 19.2144 50.7373C18.9702 50.5566 18.7822 50.3442 18.6504 50.1001C18.5186 49.856 18.4526 49.5703 18.4526 49.2432C18.4526 48.9307 18.521 48.6353 18.6577 48.3569C18.7993 48.0786 18.9971 47.832 19.251 47.6172C19.5098 47.4023 19.8198 47.2339 20.1812 47.1118C20.5425 46.9897 20.9453 46.9287 21.3896 46.9287C22.0244 46.9287 22.5664 47.041 23.0156 47.2656C23.4648 47.4902 23.8091 47.7905 24.0483 48.1665C24.2876 48.5376 24.4072 48.9502 24.4072 49.4043H23.0522C23.0522 49.1846 22.9863 48.9722 22.8545 48.7671C22.7275 48.5571 22.5396 48.3838 22.2905 48.2471C22.0464 48.1104 21.7461 48.042 21.3896 48.042C21.0137 48.042 20.7085 48.1006 20.4741 48.2178C20.2446 48.3301 20.0762 48.4741 19.9688 48.6499C19.8662 48.8257 19.8149 49.0112 19.8149 49.2065C19.8149 49.353 19.8394 49.4849 19.8882 49.6021C19.9419 49.7144 20.0347 49.8193 20.1665 49.917C20.2983 50.0098 20.4839 50.0977 20.7231 50.1807C20.9624 50.2637 21.2676 50.3467 21.6387 50.4297C22.2881 50.5762 22.8228 50.752 23.2427 50.957C23.6626 51.1621 23.9751 51.4136 24.1802 51.7114C24.3853 52.0093 24.4878 52.3706 24.4878 52.7954C24.4878 53.1421 24.4146 53.4595 24.2681 53.7476C24.1265 54.0356 23.9189 54.2847 23.6455 54.4946C23.377 54.6997 23.0547 54.8608 22.6787 54.978C22.3076 55.0903 21.8901 55.1465 21.4263 55.1465C20.728 55.1465 20.1372 55.022 19.6538 54.7729C19.1704 54.5239 18.8042 54.2017 18.5552 53.8062C18.3062 53.4106 18.1816 52.9932 18.1816 52.5537H19.5439C19.5635 52.9248 19.6709 53.2202 19.8662 53.4399C20.0615 53.6548 20.3008 53.8086 20.584 53.9014C20.8672 53.9893 21.1479 54.0332 21.4263 54.0332C21.7974 54.0332 22.1074 53.9844 22.3564 53.8867C22.6104 53.7891 22.8032 53.6548 22.9351 53.4839C23.0669 53.313 23.1328 53.1177 23.1328 52.8979ZM29.5854 47.0752V48.1152H25.3008V47.0752H29.5854ZM26.751 45.1489H28.106V53.0371C28.106 53.3057 28.1475 53.5083 28.2305 53.645C28.3135 53.7817 28.4209 53.8721 28.5527 53.916C28.6846 53.96 28.8262 53.9819 28.9775 53.9819C29.0898 53.9819 29.207 53.9722 29.3291 53.9526C29.4561 53.9282 29.5513 53.9087 29.6147 53.894L29.6221 55C29.5146 55.0342 29.373 55.0659 29.1973 55.0952C29.0264 55.1294 28.8188 55.1465 28.5747 55.1465C28.2427 55.1465 27.9375 55.0806 27.6592 54.9487C27.3809 54.8169 27.1587 54.5972 26.9927 54.2896C26.8315 53.9771 26.751 53.5571 26.751 53.0298V45.1489ZM30.6694 51.1255V50.957C30.6694 50.3857 30.7524 49.856 30.9185 49.3677C31.0845 48.8745 31.3237 48.4473 31.6362 48.0859C31.9487 47.7197 32.3271 47.4365 32.7715 47.2363C33.2158 47.0312 33.7139 46.9287 34.2656 46.9287C34.8223 46.9287 35.3228 47.0312 35.7671 47.2363C36.2163 47.4365 36.5972 47.7197 36.9097 48.0859C37.2271 48.4473 37.4688 48.8745 37.6348 49.3677C37.8008 49.856 37.8838 50.3857 37.8838 50.957V51.1255C37.8838 51.6968 37.8008 52.2266 37.6348 52.7148C37.4688 53.2031 37.2271 53.6304 36.9097 53.9966C36.5972 54.3579 36.2188 54.6411 35.7744 54.8462C35.335 55.0464 34.8369 55.1465 34.2803 55.1465C33.7236 55.1465 33.2231 55.0464 32.7788 54.8462C32.3345 54.6411 31.9536 54.3579 31.6362 53.9966C31.3237 53.6304 31.0845 53.2031 30.9185 52.7148C30.7524 52.2266 30.6694 51.6968 30.6694 51.1255ZM32.0244 50.957V51.1255C32.0244 51.521 32.0708 51.8945 32.1636 52.2461C32.2563 52.5928 32.3955 52.9004 32.5811 53.1689C32.7715 53.4375 33.0083 53.6499 33.2915 53.8062C33.5747 53.9575 33.9043 54.0332 34.2803 54.0332C34.6514 54.0332 34.9761 53.9575 35.2544 53.8062C35.5376 53.6499 35.772 53.4375 35.9575 53.1689C36.1431 52.9004 36.2822 52.5928 36.375 52.2461C36.4727 51.8945 36.5215 51.521 36.5215 51.1255V50.957C36.5215 50.5664 36.4727 50.1978 36.375 49.8511C36.2822 49.4995 36.1406 49.1895 35.9502 48.9209C35.7646 48.6475 35.5303 48.4326 35.2471 48.2764C34.9688 48.1201 34.6416 48.042 34.2656 48.042C33.8945 48.042 33.5674 48.1201 33.2842 48.2764C33.0059 48.4326 32.7715 48.6475 32.5811 48.9209C32.3955 49.1895 32.2563 49.4995 32.1636 49.8511C32.0708 50.1978 32.0244 50.5664 32.0244 50.957ZM40.938 48.3203V55H39.583V47.0752H40.9014L40.938 48.3203ZM43.4136 47.0312L43.4062 48.291C43.2939 48.2666 43.1865 48.252 43.084 48.2471C42.9863 48.2373 42.874 48.2324 42.7471 48.2324C42.4346 48.2324 42.1587 48.2812 41.9194 48.3789C41.6802 48.4766 41.4775 48.6133 41.3115 48.7891C41.1455 48.9648 41.0137 49.1748 40.916 49.4189C40.8232 49.6582 40.7622 49.9219 40.7329 50.21L40.3521 50.4297C40.3521 49.9512 40.3984 49.502 40.4912 49.082C40.5889 48.6621 40.7378 48.291 40.938 47.9688C41.1382 47.6416 41.3921 47.3877 41.6997 47.207C42.0122 47.0215 42.3833 46.9287 42.813 46.9287C42.9106 46.9287 43.0229 46.9409 43.1499 46.9653C43.2769 46.9849 43.3647 47.0068 43.4136 47.0312ZM47.0244 54.1797L49.229 47.0752H50.6792L47.5005 56.2231C47.4272 56.4185 47.3296 56.6284 47.2075 56.853C47.0903 57.0825 46.939 57.2998 46.7534 57.5049C46.5679 57.71 46.3433 57.876 46.0796 58.0029C45.8208 58.1348 45.5107 58.2007 45.1494 58.2007C45.042 58.2007 44.9053 58.186 44.7393 58.1567C44.5732 58.1274 44.4561 58.103 44.3877 58.0835L44.3804 56.9849C44.4194 56.9897 44.4805 56.9946 44.5635 56.9995C44.6514 57.0093 44.7124 57.0142 44.7466 57.0142C45.0542 57.0142 45.3154 56.9727 45.5303 56.8896C45.7451 56.8115 45.9258 56.6772 46.0723 56.4868C46.2236 56.3013 46.353 56.0449 46.4604 55.7178L47.0244 54.1797ZM45.4058 47.0752L47.4639 53.2275L47.8154 54.6558L46.8413 55.1538L43.9263 47.0752H45.4058Z" fill="white"/>
<path d="M11.3335 48.9209V50.0708H5.56201V48.9209H11.3335ZM5.78174 44.3359V55H4.36816V44.3359H5.78174ZM12.564 44.3359V55H11.1577V44.3359H12.564ZM16.3433 47.0752V55H14.981V47.0752H16.3433ZM14.8784 44.9731C14.8784 44.7534 14.9443 44.5679 15.0762 44.4165C15.2129 44.2651 15.4131 44.1895 15.6768 44.1895C15.9355 44.1895 16.1333 44.2651 16.27 44.4165C16.4116 44.5679 16.4824 44.7534 16.4824 44.9731C16.4824 45.1831 16.4116 45.3638 16.27 45.5151C16.1333 45.6616 15.9355 45.7349 15.6768 45.7349C15.4131 45.7349 15.2129 45.6616 15.0762 45.5151C14.9443 45.3638 14.8784 45.1831 14.8784 44.9731ZM23.1328 52.8979C23.1328 52.7026 23.0889 52.522 23.001 52.356C22.918 52.1851 22.7446 52.0312 22.481 51.8945C22.2222 51.7529 21.8315 51.6309 21.3091 51.5283C20.8696 51.4355 20.4717 51.3257 20.1152 51.1987C19.7637 51.0718 19.4634 50.918 19.2144 50.7373C18.9702 50.5566 18.7822 50.3442 18.6504 50.1001C18.5186 49.856 18.4526 49.5703 18.4526 49.2432C18.4526 48.9307 18.521 48.6353 18.6577 48.3569C18.7993 48.0786 18.9971 47.832 19.251 47.6172C19.5098 47.4023 19.8198 47.2339 20.1812 47.1118C20.5425 46.9897 20.9453 46.9287 21.3896 46.9287C22.0244 46.9287 22.5664 47.041 23.0156 47.2656C23.4648 47.4902 23.8091 47.7905 24.0483 48.1665C24.2876 48.5376 24.4072 48.9502 24.4072 49.4043H23.0522C23.0522 49.1846 22.9863 48.9722 22.8545 48.7671C22.7275 48.5571 22.5396 48.3838 22.2905 48.2471C22.0464 48.1104 21.7461 48.042 21.3896 48.042C21.0137 48.042 20.7085 48.1006 20.4741 48.2178C20.2446 48.3301 20.0762 48.4741 19.9688 48.6499C19.8662 48.8257 19.8149 49.0112 19.8149 49.2065C19.8149 49.353 19.8394 49.4849 19.8882 49.6021C19.9419 49.7144 20.0347 49.8193 20.1665 49.917C20.2983 50.0098 20.4839 50.0977 20.7231 50.1807C20.9624 50.2637 21.2676 50.3467 21.6387 50.4297C22.2881 50.5762 22.8228 50.752 23.2427 50.957C23.6626 51.1621 23.9751 51.4136 24.1802 51.7114C24.3853 52.0093 24.4878 52.3706 24.4878 52.7954C24.4878 53.1421 24.4146 53.4595 24.2681 53.7476C24.1265 54.0356 23.9189 54.2847 23.6455 54.4946C23.377 54.6997 23.0547 54.8608 22.6787 54.978C22.3076 55.0903 21.8901 55.1465 21.4263 55.1465C20.728 55.1465 20.1372 55.022 19.6538 54.7729C19.1704 54.5239 18.8042 54.2017 18.5552 53.8062C18.3062 53.4106 18.1816 52.9932 18.1816 52.5537H19.5439C19.5635 52.9248 19.6709 53.2202 19.8662 53.4399C20.0615 53.6548 20.3008 53.8086 20.584 53.9014C20.8672 53.9893 21.1479 54.0332 21.4263 54.0332C21.7974 54.0332 22.1074 53.9844 22.3564 53.8867C22.6104 53.7891 22.8032 53.6548 22.9351 53.4839C23.0669 53.313 23.1328 53.1177 23.1328 52.8979ZM29.5854 47.0752V48.1152H25.3008V47.0752H29.5854ZM26.751 45.1489H28.106V53.0371C28.106 53.3057 28.1475 53.5083 28.2305 53.645C28.3135 53.7817 28.4209 53.8721 28.5527 53.916C28.6846 53.96 28.8262 53.9819 28.9775 53.9819C29.0898 53.9819 29.207 53.9722 29.3291 53.9526C29.4561 53.9282 29.5513 53.9087 29.6147 53.894L29.6221 55C29.5146 55.0342 29.373 55.0659 29.1973 55.0952C29.0264 55.1294 28.8188 55.1465 28.5747 55.1465C28.2427 55.1465 27.9375 55.0806 27.6592 54.9487C27.3809 54.8169 27.1587 54.5972 26.9927 54.2896C26.8315 53.9771 26.751 53.5571 26.751 53.0298V45.1489ZM30.6694 51.1255V50.957C30.6694 50.3857 30.7524 49.856 30.9185 49.3677C31.0845 48.8745 31.3237 48.4473 31.6362 48.0859C31.9487 47.7197 32.3271 47.4365 32.7715 47.2363C33.2158 47.0312 33.7139 46.9287 34.2656 46.9287C34.8223 46.9287 35.3228 47.0312 35.7671 47.2363C36.2163 47.4365 36.5972 47.7197 36.9097 48.0859C37.2271 48.4473 37.4688 48.8745 37.6348 49.3677C37.8008 49.856 37.8838 50.3857 37.8838 50.957V51.1255C37.8838 51.6968 37.8008 52.2266 37.6348 52.7148C37.4688 53.2031 37.2271 53.6304 36.9097 53.9966C36.5972 54.3579 36.2188 54.6411 35.7744 54.8462C35.335 55.0464 34.8369 55.1465 34.2803 55.1465C33.7236 55.1465 33.2231 55.0464 32.7788 54.8462C32.3345 54.6411 31.9536 54.3579 31.6362 53.9966C31.3237 53.6304 31.0845 53.2031 30.9185 52.7148C30.7524 52.2266 30.6694 51.6968 30.6694 51.1255ZM32.0244 50.957V51.1255C32.0244 51.521 32.0708 51.8945 32.1636 52.2461C32.2563 52.5928 32.3955 52.9004 32.5811 53.1689C32.7715 53.4375 33.0083 53.6499 33.2915 53.8062C33.5747 53.9575 33.9043 54.0332 34.2803 54.0332C34.6514 54.0332 34.9761 53.9575 35.2544 53.8062C35.5376 53.6499 35.772 53.4375 35.9575 53.1689C36.1431 52.9004 36.2822 52.5928 36.375 52.2461C36.4727 51.8945 36.5215 51.521 36.5215 51.1255V50.957C36.5215 50.5664 36.4727 50.1978 36.375 49.8511C36.2822 49.4995 36.1406 49.1895 35.9502 48.9209C35.7646 48.6475 35.5303 48.4326 35.2471 48.2764C34.9688 48.1201 34.6416 48.042 34.2656 48.042C33.8945 48.042 33.5674 48.1201 33.2842 48.2764C33.0059 48.4326 32.7715 48.6475 32.5811 48.9209C32.3955 49.1895 32.2563 49.4995 32.1636 49.8511C32.0708 50.1978 32.0244 50.5664 32.0244 50.957ZM40.938 48.3203V55H39.583V47.0752H40.9014L40.938 48.3203ZM43.4136 47.0312L43.4062 48.291C43.2939 48.2666 43.1865 48.252 43.084 48.2471C42.9863 48.2373 42.874 48.2324 42.7471 48.2324C42.4346 48.2324 42.1587 48.2812 41.9194 48.3789C41.6802 48.4766 41.4775 48.6133 41.3115 48.7891C41.1455 48.9648 41.0137 49.1748 40.916 49.4189C40.8232 49.6582 40.7622 49.9219 40.7329 50.21L40.3521 50.4297C40.3521 49.9512 40.3984 49.502 40.4912 49.082C40.5889 48.6621 40.7378 48.291 40.938 47.9688C41.1382 47.6416 41.3921 47.3877 41.6997 47.207C42.0122 47.0215 42.3833 46.9287 42.813 46.9287C42.9106 46.9287 43.0229 46.9409 43.1499 46.9653C43.2769 46.9849 43.3647 47.0068 43.4136 47.0312ZM47.0244 54.1797L49.229 47.0752H50.6792L47.5005 56.2231C47.4272 56.4185 47.3296 56.6284 47.2075 56.853C47.0903 57.0825 46.939 57.2998 46.7534 57.5049C46.5679 57.71 46.3433 57.876 46.0796 58.0029C45.8208 58.1348 45.5107 58.2007 45.1494 58.2007C45.042 58.2007 44.9053 58.186 44.7393 58.1567C44.5732 58.1274 44.4561 58.103 44.3877 58.0835L44.3804 56.9849C44.4194 56.9897 44.4805 56.9946 44.5635 56.9995C44.6514 57.0093 44.7124 57.0142 44.7466 57.0142C45.0542 57.0142 45.3154 56.9727 45.5303 56.8896C45.7451 56.8115 45.9258 56.6772 46.0723 56.4868C46.2236 56.3013 46.353 56.0449 46.4604 55.7178L47.0244 54.1797ZM45.4058 47.0752L47.4639 53.2275L47.8154 54.6558L46.8413 55.1538L43.9263 47.0752H45.4058Z" fill="white"/>
<g clip-path="url(#clip0_42_2214)">
<path d="M28.03 2.038C27.6873 2.0127 27.3437 2.00002 27 2V0C27.3931 0.000191655 27.786 0.0148683 28.178 0.044L28.03 2.038ZM32.038 2.938C31.3969 2.69061 30.7384 2.49074 30.068 2.34L30.506 0.388C31.272 0.56 32.026 0.788 32.758 1.072L32.038 2.938ZM34.778 4.358C34.4921 4.1673 34.1992 3.98718 33.9 3.818L34.886 2.078C35.5698 2.46547 36.2242 2.90265 36.844 3.386L35.614 4.964C35.3429 4.75246 35.064 4.55099 34.778 4.36V4.358ZM38.446 7.938C38.0504 7.37595 37.6139 6.84384 37.14 6.346L38.588 4.966C39.128 5.536 39.628 6.146 40.082 6.786L38.446 7.938ZM39.934 10.642C39.8027 10.3249 39.66 10.0127 39.506 9.706L41.292 8.806C41.6452 9.50817 41.946 10.2355 42.192 10.982L40.292 11.608C40.1845 11.2817 40.0651 10.9595 39.934 10.642ZM40.994 15.656C40.9778 14.9687 40.911 14.2835 40.794 13.606L42.764 13.266C42.898 14.038 42.976 14.822 42.996 15.606L40.996 15.656H40.994ZM40.732 18.732C40.798 18.392 40.852 18.054 40.894 17.712L42.88 17.958C42.7839 18.7383 42.6302 19.5104 42.42 20.268L40.492 19.734C40.584 19.404 40.664 19.07 40.732 18.732ZM38.828 23.49C39.196 22.91 39.52 22.302 39.8 21.674L41.628 22.484C41.308 23.204 40.938 23.896 40.518 24.56L38.828 23.49ZM36.9 25.9C37.144 25.656 37.378 25.404 37.6 25.144L39.116 26.45C38.8593 26.7477 38.5918 27.0359 38.314 27.314L36.9 25.9Z" fill="white"/>
<path d="M27.0004 2C24.6981 2.00017 22.4315 2.56809 20.4011 3.65348C18.3708 4.73886 16.6395 6.3082 15.3605 8.2225C14.0815 10.1368 13.2944 12.337 13.0688 14.6281C12.8432 16.9193 13.1861 19.2307 14.0671 21.3577C14.9482 23.4847 16.3402 25.3616 18.1198 26.8221C19.8995 28.2826 22.0119 29.2817 24.2699 29.7309C26.5279 30.1801 28.8618 30.0655 31.0649 29.3973C33.268 28.7291 35.2724 27.5278 36.9004 25.9L38.3144 27.314C36.4539 29.1756 34.1629 30.5495 31.6445 31.314C29.126 32.0785 26.4579 32.2101 23.8765 31.697C21.2951 31.1839 18.8801 30.042 16.8455 28.3725C14.8109 26.7029 13.2195 24.5573 12.2123 22.1258C11.2051 19.6942 10.8132 17.0518 11.0713 14.4325C11.3294 11.8133 12.2296 9.2982 13.6921 7.11004C15.1546 4.92187 17.1343 3.12822 19.4556 1.88801C21.777 0.64779 24.3685 -0.000697464 27.0004 5.62916e-07V2Z" fill="white"/>
<path d="M26 6C26.2652 6 26.5196 6.10536 26.7071 6.29289C26.8946 6.48043 27 6.73478 27 7V17.42L33.496 21.132C33.7196 21.2669 33.8815 21.4839 33.9473 21.7366C34.013 21.9893 33.9772 22.2577 33.8477 22.4844C33.7181 22.7111 33.5051 22.8782 33.254 22.9498C33.0029 23.0215 32.7337 22.9921 32.504 22.868L25.504 18.868C25.3509 18.7806 25.2237 18.6542 25.1352 18.5018C25.0467 18.3494 25.0001 18.1763 25 18V7C25 6.73478 25.1054 6.48043 25.2929 6.29289C25.4804 6.10536 25.7348 6 26 6Z" fill="white"/>
</g>
</g>
<defs>
<filter id="filter0_d_42_2214" x="0.368164" y="0" width="54.3115" height="66.2007" filterUnits="userSpaceOnUse" color-interpolation-filters="sRGB">
<feFlood flood-opacity="0" result="BackgroundImageFix"/>
<feColorMatrix in="SourceAlpha" type="matrix" values="0 0 0 0 0 0 0 0 0 0 0 0 0 0 0 0 0 0 127 0" result="hardAlpha"/>
<feOffset dy="4"/>
<feGaussianBlur stdDeviation="2"/>
<feComposite in2="hardAlpha" operator="out"/>
<feColorMatrix type="matrix" values="0 0 0 0 0 0 0 0 0 0 0 0 0 0 0 0 0 0 0.25 0"/>
<feBlend mode="normal" in2="BackgroundImageFix" result="effect1_dropShadow_42_2214"/>
<feBlend mode="normal" in="SourceGraphic" in2="effect1_dropShadow_42_2214" result="shape"/>
</filter>
<clipPath id="clip0_42_2214">
<rect width="32" height="32" fill="white" transform="translate(11)"/>
</clipPath>
</defs>
</svg>
