<svg width="41" height="66" viewBox="0 0 41 66" fill="none" xmlns="http://www.w3.org/2000/svg">
<path d="M8.51758 55.9209V57.0708H2.74609V55.9209H8.51758ZM2.96582 51.3359V62H1.55225V51.3359H2.96582ZM9.74805 51.3359V62H8.3418V51.3359H9.74805ZM11.6963 58.1255V57.957C11.6963 57.3857 11.7793 56.856 11.9453 56.3677C12.1113 55.8745 12.3506 55.4473 12.6631 55.0859C12.9756 54.7197 13.354 54.4365 13.7983 54.2363C14.2427 54.0312 14.7407 53.9287 15.2925 53.9287C15.8491 53.9287 16.3496 54.0312 16.7939 54.2363C17.2432 54.4365 17.624 54.7197 17.9365 55.0859C18.2539 55.4473 18.4956 55.8745 18.6616 56.3677C18.8276 56.856 18.9106 57.3857 18.9106 57.957V58.1255C18.9106 58.6968 18.8276 59.2266 18.6616 59.7148C18.4956 60.2031 18.2539 60.6304 17.9365 60.9966C17.624 61.3579 17.2456 61.6411 16.8013 61.8462C16.3618 62.0464 15.8638 62.1465 15.3071 62.1465C14.7505 62.1465 14.25 62.0464 13.8057 61.8462C13.3613 61.6411 12.9805 61.3579 12.6631 60.9966C12.3506 60.6304 12.1113 60.2031 11.9453 59.7148C11.7793 59.2266 11.6963 58.6968 11.6963 58.1255ZM13.0513 57.957V58.1255C13.0513 58.521 13.0977 58.8945 13.1904 59.2461C13.2832 59.5928 13.4224 59.9004 13.6079 60.1689C13.7983 60.4375 14.0352 60.6499 14.3184 60.8062C14.6016 60.9575 14.9312 61.0332 15.3071 61.0332C15.6782 61.0332 16.0029 60.9575 16.2812 60.8062C16.5645 60.6499 16.7988 60.4375 16.9844 60.1689C17.1699 59.9004 17.3091 59.5928 17.4019 59.2461C17.4995 58.8945 17.5483 58.521 17.5483 58.1255V57.957C17.5483 57.5664 17.4995 57.1978 17.4019 56.8511C17.3091 56.4995 17.1675 56.1895 16.9771 55.9209C16.7915 55.6475 16.5571 55.4326 16.2739 55.2764C15.9956 55.1201 15.6685 55.042 15.2925 55.042C14.9214 55.042 14.5942 55.1201 14.311 55.2764C14.0327 55.4326 13.7983 55.6475 13.6079 55.9209C13.4224 56.1895 13.2832 56.4995 13.1904 56.8511C13.0977 57.1978 13.0513 57.5664 13.0513 57.957ZM21.9575 55.6499V62H20.5952V54.0752H21.8843L21.9575 55.6499ZM21.6792 57.7373L21.0493 57.7153C21.0542 57.1733 21.125 56.6729 21.2617 56.2139C21.3984 55.75 21.6011 55.3472 21.8696 55.0054C22.1382 54.6636 22.4727 54.3999 22.873 54.2144C23.2734 54.0239 23.7373 53.9287 24.2646 53.9287C24.6357 53.9287 24.9775 53.9824 25.29 54.0898C25.6025 54.1924 25.8735 54.356 26.103 54.5806C26.3325 54.8052 26.5107 55.0933 26.6377 55.4448C26.7646 55.7964 26.8281 56.2212 26.8281 56.7192V62H25.4731V56.7852C25.4731 56.3701 25.4023 56.0381 25.2607 55.7891C25.124 55.54 24.9287 55.3594 24.6748 55.2471C24.4209 55.1299 24.123 55.0713 23.7812 55.0713C23.3809 55.0713 23.0464 55.1421 22.7778 55.2837C22.5093 55.4253 22.2944 55.6206 22.1333 55.8696C21.9722 56.1187 21.855 56.4043 21.7817 56.7266C21.7134 57.0439 21.6792 57.3809 21.6792 57.7373ZM26.8135 56.9902L25.9053 57.2686C25.9102 56.834 25.981 56.4165 26.1177 56.0161C26.2593 55.6157 26.4619 55.2593 26.7256 54.9468C26.9941 54.6343 27.3237 54.3877 27.7144 54.207C28.105 54.0215 28.5518 53.9287 29.0547 53.9287C29.4795 53.9287 29.8555 53.9849 30.1826 54.0972C30.5146 54.2095 30.793 54.3828 31.0176 54.6172C31.2471 54.8467 31.4204 55.1421 31.5376 55.5034C31.6548 55.8647 31.7134 56.2944 31.7134 56.7925V62H30.3511V56.7778C30.3511 56.3335 30.2803 55.9893 30.1387 55.7451C30.002 55.4961 29.8066 55.3228 29.5527 55.2251C29.3037 55.1226 29.0059 55.0713 28.6592 55.0713C28.3613 55.0713 28.0977 55.1226 27.8682 55.2251C27.6387 55.3276 27.4458 55.4692 27.2896 55.6499C27.1333 55.8257 27.0137 56.0283 26.9307 56.2578C26.8525 56.4873 26.8135 56.7314 26.8135 56.9902ZM37.0527 62.1465C36.501 62.1465 36.0005 62.0537 35.5513 61.8682C35.1069 61.6777 34.7236 61.4116 34.4014 61.0698C34.084 60.728 33.8398 60.3228 33.6689 59.854C33.498 59.3853 33.4126 58.8726 33.4126 58.3159V58.0083C33.4126 57.3638 33.5078 56.79 33.6982 56.2871C33.8887 55.7793 34.1475 55.3496 34.4746 54.998C34.8018 54.6465 35.1729 54.3804 35.5879 54.1997C36.0029 54.019 36.4326 53.9287 36.877 53.9287C37.4434 53.9287 37.9316 54.0264 38.3418 54.2217C38.7568 54.417 39.0962 54.6904 39.3599 55.042C39.6235 55.3887 39.8188 55.7988 39.9458 56.2725C40.0728 56.7412 40.1362 57.2539 40.1362 57.8105V58.4185H34.2183V57.3125H38.7812V57.21C38.7617 56.8584 38.6885 56.5166 38.5615 56.1846C38.4395 55.8525 38.2441 55.5791 37.9756 55.3643C37.707 55.1494 37.3408 55.042 36.877 55.042C36.5693 55.042 36.2861 55.1079 36.0273 55.2397C35.7686 55.3667 35.5464 55.5571 35.3608 55.811C35.1753 56.0649 35.0312 56.375 34.9287 56.7412C34.8262 57.1074 34.7749 57.5298 34.7749 58.0083V58.3159C34.7749 58.6919 34.8262 59.0459 34.9287 59.3779C35.0361 59.7051 35.1899 59.9932 35.3901 60.2422C35.5952 60.4912 35.8418 60.6865 36.1299 60.8281C36.4229 60.9697 36.7549 61.0405 37.126 61.0405C37.6045 61.0405 38.0098 60.9429 38.3418 60.7476C38.6738 60.5522 38.9644 60.291 39.2134 59.9639L40.0337 60.6157C39.8628 60.8745 39.6455 61.1211 39.3818 61.3555C39.1182 61.5898 38.7935 61.7803 38.4077 61.9268C38.0269 62.0732 37.5752 62.1465 37.0527 62.1465Z" fill="white"/>
<path d="M37.1244 18.7403L21.8391 3.46603C21.729 3.35576 21.5983 3.26827 21.4544 3.20858C21.3105 3.14889 21.1562 3.11816 21.0004 3.11816C20.8446 3.11816 20.6903 3.14889 20.5464 3.20858C20.4025 3.26827 20.2718 3.35576 20.1617 3.46603L4.87637 18.7403C4.43105 19.1856 4.17871 19.7904 4.17871 20.4213C4.17871 21.7313 5.24375 22.7963 6.55371 22.7963H8.16426V33.6953C8.16426 34.3522 8.69492 34.8828 9.35176 34.8828H18.6254V26.5703H22.7816V34.8828H32.649C33.3059 34.8828 33.8365 34.3522 33.8365 33.6953V22.7963H35.4471C36.0779 22.7963 36.6828 22.5477 37.1281 22.0987C38.0521 21.1709 38.0521 19.668 37.1244 18.7403Z" fill="white"/>
</svg>
