<svg width="62" height="60" viewBox="0 0 62 60" fill="none" xmlns="http://www.w3.org/2000/svg">
<path d="M3.04346 45.3359V56H1.62988V45.3359H3.04346ZM6.76416 49.7671V56H5.40918V48.0752H6.69092L6.76416 49.7671ZM6.44189 51.7373L5.87793 51.7153C5.88281 51.1733 5.96338 50.6729 6.11963 50.2139C6.27588 49.75 6.49561 49.3472 6.77881 49.0054C7.06201 48.6636 7.39893 48.3999 7.78955 48.2144C8.18506 48.0239 8.62207 47.9287 9.10059 47.9287C9.49121 47.9287 9.84277 47.9824 10.1553 48.0898C10.4678 48.1924 10.7339 48.3584 10.9536 48.5879C11.1782 48.8174 11.3491 49.1152 11.4663 49.4814C11.5835 49.8428 11.6421 50.2847 11.6421 50.8071V56H10.2798V50.7925C10.2798 50.3774 10.2188 50.0454 10.0967 49.7964C9.97461 49.5425 9.79639 49.3594 9.56201 49.2471C9.32764 49.1299 9.03955 49.0713 8.69775 49.0713C8.36084 49.0713 8.05322 49.1421 7.7749 49.2837C7.50146 49.4253 7.26465 49.6206 7.06445 49.8696C6.86914 50.1187 6.71533 50.4043 6.60303 50.7266C6.49561 51.0439 6.44189 51.3809 6.44189 51.7373ZM16.1099 54.7769L18.2778 48.0752H19.6621L16.813 56H15.9048L16.1099 54.7769ZM14.3008 48.0752L16.5347 54.8135L16.6885 56H15.7803L12.9092 48.0752H14.3008ZM24.1519 56.1465C23.6001 56.1465 23.0996 56.0537 22.6504 55.8682C22.2061 55.6777 21.8228 55.4116 21.5005 55.0698C21.1831 54.728 20.939 54.3228 20.7681 53.854C20.5972 53.3853 20.5117 52.8726 20.5117 52.3159V52.0083C20.5117 51.3638 20.6069 50.79 20.7974 50.2871C20.9878 49.7793 21.2466 49.3496 21.5737 48.998C21.9009 48.6465 22.272 48.3804 22.687 48.1997C23.1021 48.019 23.5317 47.9287 23.9761 47.9287C24.5425 47.9287 25.0308 48.0264 25.4409 48.2217C25.856 48.417 26.1953 48.6904 26.459 49.042C26.7227 49.3887 26.918 49.7988 27.0449 50.2725C27.1719 50.7412 27.2354 51.2539 27.2354 51.8105V52.4185H21.3174V51.3125H25.8804V51.21C25.8608 50.8584 25.7876 50.5166 25.6606 50.1846C25.5386 49.8525 25.3433 49.5791 25.0747 49.3643C24.8062 49.1494 24.4399 49.042 23.9761 49.042C23.6685 49.042 23.3853 49.1079 23.1265 49.2397C22.8677 49.3667 22.6455 49.5571 22.46 49.811C22.2744 50.0649 22.1304 50.375 22.0278 50.7412C21.9253 51.1074 21.874 51.5298 21.874 52.0083V52.3159C21.874 52.6919 21.9253 53.0459 22.0278 53.3779C22.1353 53.7051 22.2891 53.9932 22.4893 54.2422C22.6943 54.4912 22.9409 54.6865 23.229 54.8281C23.522 54.9697 23.854 55.0405 24.2251 55.0405C24.7036 55.0405 25.1089 54.9429 25.4409 54.7476C25.7729 54.5522 26.0635 54.291 26.3125 53.9639L27.1328 54.6157C26.9619 54.8745 26.7446 55.1211 26.481 55.3555C26.2173 55.5898 25.8926 55.7803 25.5068 55.9268C25.126 56.0732 24.6743 56.1465 24.1519 56.1465ZM30.1724 49.7671V56H28.8174V48.0752H30.0991L30.1724 49.7671ZM29.8501 51.7373L29.2861 51.7153C29.291 51.1733 29.3716 50.6729 29.5278 50.2139C29.6841 49.75 29.9038 49.3472 30.187 49.0054C30.4702 48.6636 30.8071 48.3999 31.1978 48.2144C31.5933 48.0239 32.0303 47.9287 32.5088 47.9287C32.8994 47.9287 33.251 47.9824 33.5635 48.0898C33.876 48.1924 34.1421 48.3584 34.3618 48.5879C34.5864 48.8174 34.7573 49.1152 34.8745 49.4814C34.9917 49.8428 35.0503 50.2847 35.0503 50.8071V56H33.688V50.7925C33.688 50.3774 33.627 50.0454 33.5049 49.7964C33.3828 49.5425 33.2046 49.3594 32.9702 49.2471C32.7358 49.1299 32.4478 49.0713 32.106 49.0713C31.769 49.0713 31.4614 49.1421 31.1831 49.2837C30.9097 49.4253 30.6729 49.6206 30.4727 49.8696C30.2773 50.1187 30.1235 50.4043 30.0112 50.7266C29.9038 51.0439 29.8501 51.3809 29.8501 51.7373ZM40.4263 48.0752V49.1152H36.1416V48.0752H40.4263ZM37.5918 46.1489H38.9468V54.0371C38.9468 54.3057 38.9883 54.5083 39.0713 54.645C39.1543 54.7817 39.2617 54.8721 39.3936 54.916C39.5254 54.96 39.667 54.9819 39.8184 54.9819C39.9307 54.9819 40.0479 54.9722 40.1699 54.9526C40.2969 54.9282 40.3921 54.9087 40.4556 54.894L40.4629 56C40.3555 56.0342 40.2139 56.0659 40.0381 56.0952C39.8672 56.1294 39.6597 56.1465 39.4155 56.1465C39.0835 56.1465 38.7783 56.0806 38.5 55.9487C38.2217 55.8169 37.9995 55.5972 37.8335 55.2896C37.6724 54.9771 37.5918 54.5571 37.5918 54.0298V46.1489ZM41.5103 52.1255V51.957C41.5103 51.3857 41.5933 50.856 41.7593 50.3677C41.9253 49.8745 42.1646 49.4473 42.4771 49.0859C42.7896 48.7197 43.168 48.4365 43.6123 48.2363C44.0566 48.0312 44.5547 47.9287 45.1064 47.9287C45.6631 47.9287 46.1636 48.0312 46.6079 48.2363C47.0571 48.4365 47.438 48.7197 47.7505 49.0859C48.0679 49.4473 48.3096 49.8745 48.4756 50.3677C48.6416 50.856 48.7246 51.3857 48.7246 51.957V52.1255C48.7246 52.6968 48.6416 53.2266 48.4756 53.7148C48.3096 54.2031 48.0679 54.6304 47.7505 54.9966C47.438 55.3579 47.0596 55.6411 46.6152 55.8462C46.1758 56.0464 45.6777 56.1465 45.1211 56.1465C44.5645 56.1465 44.064 56.0464 43.6196 55.8462C43.1753 55.6411 42.7944 55.3579 42.4771 54.9966C42.1646 54.6304 41.9253 54.2031 41.7593 53.7148C41.5933 53.2266 41.5103 52.6968 41.5103 52.1255ZM42.8652 51.957V52.1255C42.8652 52.521 42.9116 52.8945 43.0044 53.2461C43.0972 53.5928 43.2363 53.9004 43.4219 54.1689C43.6123 54.4375 43.8491 54.6499 44.1323 54.8062C44.4155 54.9575 44.7451 55.0332 45.1211 55.0332C45.4922 55.0332 45.8169 54.9575 46.0952 54.8062C46.3784 54.6499 46.6128 54.4375 46.7983 54.1689C46.9839 53.9004 47.123 53.5928 47.2158 53.2461C47.3135 52.8945 47.3623 52.521 47.3623 52.1255V51.957C47.3623 51.5664 47.3135 51.1978 47.2158 50.8511C47.123 50.4995 46.9814 50.1895 46.791 49.9209C46.6055 49.6475 46.3711 49.4326 46.0879 49.2764C45.8096 49.1201 45.4824 49.042 45.1064 49.042C44.7354 49.042 44.4082 49.1201 44.125 49.2764C43.8467 49.4326 43.6123 49.6475 43.4219 49.9209C43.2363 50.1895 43.0972 50.4995 43.0044 50.8511C42.9116 51.1978 42.8652 51.5664 42.8652 51.957ZM51.7788 49.3203V56H50.4238V48.0752H51.7422L51.7788 49.3203ZM54.2544 48.0312L54.2471 49.291C54.1348 49.2666 54.0273 49.252 53.9248 49.2471C53.8271 49.2373 53.7148 49.2324 53.5879 49.2324C53.2754 49.2324 52.9995 49.2812 52.7603 49.3789C52.521 49.4766 52.3184 49.6133 52.1523 49.7891C51.9863 49.9648 51.8545 50.1748 51.7568 50.4189C51.6641 50.6582 51.603 50.9219 51.5737 51.21L51.1929 51.4297C51.1929 50.9512 51.2393 50.502 51.332 50.082C51.4297 49.6621 51.5786 49.291 51.7788 48.9688C51.979 48.6416 52.2329 48.3877 52.5405 48.207C52.853 48.0215 53.2241 47.9287 53.6538 47.9287C53.7515 47.9287 53.8638 47.9409 53.9907 47.9653C54.1177 47.9849 54.2056 48.0068 54.2544 48.0312ZM57.8652 55.1797L60.0698 48.0752H61.52L58.3413 57.2231C58.2681 57.4185 58.1704 57.6284 58.0483 57.853C57.9312 58.0825 57.7798 58.2998 57.5942 58.5049C57.4087 58.71 57.1841 58.876 56.9204 59.0029C56.6616 59.1348 56.3516 59.2007 55.9902 59.2007C55.8828 59.2007 55.7461 59.186 55.5801 59.1567C55.4141 59.1274 55.2969 59.103 55.2285 59.0835L55.2212 57.9849C55.2603 57.9897 55.3213 57.9946 55.4043 57.9995C55.4922 58.0093 55.5532 58.0142 55.5874 58.0142C55.895 58.0142 56.1562 57.9727 56.3711 57.8896C56.5859 57.8115 56.7666 57.6772 56.9131 57.4868C57.0645 57.3013 57.1938 57.0449 57.3013 56.7178L57.8652 55.1797ZM56.2466 48.0752L58.3047 54.2275L58.6562 55.6558L57.6821 56.1538L54.7671 48.0752H56.2466Z" fill="white"/>
<path d="M20.9167 7.91683H24.0833V12.6668H39.9167V7.91683H43.0833V15.8335H46.25V7.91683C46.25 6.17516 44.825 4.75016 43.0833 4.75016H36.465C35.8 2.9135 34.0583 1.5835 32 1.5835C29.9417 1.5835 28.2 2.9135 27.535 4.75016H20.9167C19.175 4.75016 17.75 6.17516 17.75 7.91683V30.0835C17.75 31.8252 19.175 33.2502 20.9167 33.2502H30.4167V30.0835H20.9167V7.91683ZM32 4.75016C32.8708 4.75016 33.5833 5.46266 33.5833 6.3335C33.5833 7.20433 32.8708 7.91683 32 7.91683C31.1292 7.91683 30.4167 7.20433 30.4167 6.3335C30.4167 5.46266 31.1292 4.75016 32 4.75016Z" fill="white"/>
<path d="M46.2503 18.2085L37.5578 26.9168L32.792 22.1668L30.417 24.5418L37.5578 31.6668L48.6253 20.5835L46.2503 18.2085Z" fill="white"/>
</svg>
