<svg width="55" height="75" viewBox="0 0 55 75" fill="none" xmlns="http://www.w3.org/2000/svg">
<path d="M12.1484 42.3359L14.917 47.6899L17.6929 42.3359H19.2969L15.6201 49.0156V53H14.2065V49.0156L10.5298 42.3359H12.1484ZM19.6191 49.1255V48.957C19.6191 48.3857 19.7021 47.856 19.8682 47.3677C20.0342 46.8745 20.2734 46.4473 20.5859 46.0859C20.8984 45.7197 21.2769 45.4365 21.7212 45.2363C22.1655 45.0312 22.6636 44.9287 23.2153 44.9287C23.772 44.9287 24.2725 45.0312 24.7168 45.2363C25.166 45.4365 25.5469 45.7197 25.8594 46.0859C26.1768 46.4473 26.4185 46.8745 26.5845 47.3677C26.7505 47.856 26.8335 48.3857 26.8335 48.957V49.1255C26.8335 49.6968 26.7505 50.2266 26.5845 50.7148C26.4185 51.2031 26.1768 51.6304 25.8594 51.9966C25.5469 52.3579 25.1685 52.6411 24.7241 52.8462C24.2847 53.0464 23.7866 53.1465 23.23 53.1465C22.6733 53.1465 22.1729 53.0464 21.7285 52.8462C21.2842 52.6411 20.9033 52.3579 20.5859 51.9966C20.2734 51.6304 20.0342 51.2031 19.8682 50.7148C19.7021 50.2266 19.6191 49.6968 19.6191 49.1255ZM20.9741 48.957V49.1255C20.9741 49.521 21.0205 49.8945 21.1133 50.2461C21.2061 50.5928 21.3452 50.9004 21.5308 51.1689C21.7212 51.4375 21.958 51.6499 22.2412 51.8062C22.5244 51.9575 22.854 52.0332 23.23 52.0332C23.6011 52.0332 23.9258 51.9575 24.2041 51.8062C24.4873 51.6499 24.7217 51.4375 24.9072 51.1689C25.0928 50.9004 25.2319 50.5928 25.3247 50.2461C25.4224 49.8945 25.4712 49.521 25.4712 49.1255V48.957C25.4712 48.5664 25.4224 48.1978 25.3247 47.8511C25.2319 47.4995 25.0903 47.1895 24.8999 46.9209C24.7144 46.6475 24.48 46.4326 24.1968 46.2764C23.9185 46.1201 23.5913 46.042 23.2153 46.042C22.8442 46.042 22.5171 46.1201 22.2339 46.2764C21.9556 46.4326 21.7212 46.6475 21.5308 46.9209C21.3452 47.1895 21.2061 47.4995 21.1133 47.8511C21.0205 48.1978 20.9741 48.5664 20.9741 48.957ZM33.3813 51.1689V45.0752H34.7437V53H33.4473L33.3813 51.1689ZM33.6377 49.499L34.2017 49.4844C34.2017 50.0117 34.1455 50.5 34.0332 50.9492C33.9258 51.3936 33.75 51.7793 33.5059 52.1064C33.2617 52.4336 32.9419 52.6899 32.5464 52.8755C32.1509 53.0562 31.6699 53.1465 31.1035 53.1465C30.7178 53.1465 30.3638 53.0903 30.0415 52.978C29.7241 52.8657 29.4507 52.6924 29.2212 52.458C28.9917 52.2236 28.8135 51.9185 28.6865 51.5425C28.5645 51.1665 28.5034 50.7148 28.5034 50.1875V45.0752H29.8584V50.2021C29.8584 50.5586 29.8975 50.854 29.9756 51.0884C30.0586 51.3179 30.1685 51.501 30.3052 51.6377C30.4468 51.7695 30.603 51.8623 30.7739 51.916C30.9497 51.9697 31.1304 51.9966 31.3159 51.9966C31.8921 51.9966 32.3486 51.8867 32.6855 51.667C33.0225 51.4424 33.2642 51.1421 33.4106 50.7661C33.562 50.3853 33.6377 49.9629 33.6377 49.499ZM38.1641 46.3203V53H36.8091V45.0752H38.1274L38.1641 46.3203ZM40.6396 45.0312L40.6323 46.291C40.52 46.2666 40.4126 46.252 40.3101 46.2471C40.2124 46.2373 40.1001 46.2324 39.9731 46.2324C39.6606 46.2324 39.3848 46.2812 39.1455 46.3789C38.9062 46.4766 38.7036 46.6133 38.5376 46.7891C38.3716 46.9648 38.2397 47.1748 38.1421 47.4189C38.0493 47.6582 37.9883 47.9219 37.959 48.21L37.5781 48.4297C37.5781 47.9512 37.6245 47.502 37.7173 47.082C37.8149 46.6621 37.9639 46.291 38.1641 45.9688C38.3643 45.6416 38.6182 45.3877 38.9258 45.207C39.2383 45.0215 39.6094 44.9287 40.0391 44.9287C40.1367 44.9287 40.249 44.9409 40.376 44.9653C40.5029 44.9849 40.5908 45.0068 40.6396 45.0312ZM5.17578 66.8179H2.32666V65.668H5.17578C5.72754 65.668 6.17432 65.5801 6.51611 65.4043C6.85791 65.2285 7.10693 64.9844 7.26318 64.6719C7.42432 64.3594 7.50488 64.0029 7.50488 63.6025C7.50488 63.2363 7.42432 62.8921 7.26318 62.5698C7.10693 62.2476 6.85791 61.9888 6.51611 61.7935C6.17432 61.5933 5.72754 61.4932 5.17578 61.4932H2.65625V71H1.24268V60.3359H5.17578C5.98145 60.3359 6.6626 60.4751 7.21924 60.7534C7.77588 61.0317 8.19824 61.4175 8.48633 61.9106C8.77441 62.3989 8.91846 62.958 8.91846 63.5879C8.91846 64.2715 8.77441 64.855 8.48633 65.3384C8.19824 65.8218 7.77588 66.1904 7.21924 66.4443C6.6626 66.6934 5.98145 66.8179 5.17578 66.8179ZM15.0854 69.645V65.5654C15.0854 65.2529 15.022 64.9819 14.895 64.7524C14.7729 64.5181 14.5874 64.3374 14.3384 64.2104C14.0894 64.0835 13.7817 64.02 13.4155 64.02C13.0737 64.02 12.7734 64.0786 12.5146 64.1958C12.2607 64.313 12.0605 64.4668 11.9141 64.6572C11.7725 64.8477 11.7017 65.0527 11.7017 65.2725H10.3467C10.3467 64.9893 10.4199 64.7085 10.5664 64.4302C10.7129 64.1519 10.9229 63.9004 11.1963 63.6758C11.4746 63.4463 11.8066 63.2656 12.1924 63.1338C12.583 62.9971 13.0176 62.9287 13.4961 62.9287C14.0723 62.9287 14.5801 63.0264 15.0195 63.2217C15.4639 63.417 15.8105 63.7124 16.0596 64.1079C16.3135 64.4985 16.4404 64.9893 16.4404 65.5801V69.2715C16.4404 69.5352 16.4624 69.8159 16.5063 70.1138C16.5552 70.4116 16.626 70.668 16.7188 70.8828V71H15.3052C15.2368 70.8438 15.1831 70.6362 15.144 70.3774C15.105 70.1138 15.0854 69.8696 15.0854 69.645ZM15.3198 66.1953L15.3345 67.1475H13.9648C13.5791 67.1475 13.2349 67.1792 12.9321 67.2427C12.6294 67.3013 12.3755 67.3916 12.1704 67.5137C11.9653 67.6357 11.8091 67.7896 11.7017 67.9751C11.5942 68.1558 11.5405 68.3682 11.5405 68.6123C11.5405 68.8613 11.5967 69.0884 11.709 69.2935C11.8213 69.4985 11.9897 69.6621 12.2144 69.7842C12.4438 69.9014 12.7246 69.96 13.0566 69.96C13.4717 69.96 13.8379 69.8721 14.1553 69.6963C14.4727 69.5205 14.7241 69.3057 14.9097 69.0518C15.1001 68.7979 15.2026 68.5513 15.2173 68.312L15.7959 68.9639C15.7617 69.1689 15.6689 69.396 15.5176 69.645C15.3662 69.894 15.1636 70.1333 14.9097 70.3628C14.6606 70.5874 14.3628 70.7754 14.0161 70.9268C13.6743 71.0732 13.2886 71.1465 12.8589 71.1465C12.3218 71.1465 11.8506 71.0415 11.4453 70.8315C11.0449 70.6216 10.7324 70.3408 10.5078 69.9893C10.2881 69.6328 10.1782 69.2349 10.1782 68.7954C10.1782 68.3706 10.2612 67.9971 10.4272 67.6748C10.5933 67.3477 10.8325 67.0767 11.145 66.8618C11.4575 66.6421 11.8335 66.4761 12.2729 66.3638C12.7124 66.2515 13.2031 66.1953 13.7451 66.1953H15.3198ZM21.8896 63.0752V64.1152H17.605V63.0752H21.8896ZM19.0552 61.1489H20.4102V69.0371C20.4102 69.3057 20.4517 69.5083 20.5347 69.645C20.6177 69.7817 20.7251 69.8721 20.8569 69.916C20.9888 69.96 21.1304 69.9819 21.2817 69.9819C21.394 69.9819 21.5112 69.9722 21.6333 69.9526C21.7603 69.9282 21.8555 69.9087 21.9189 69.894L21.9263 71C21.8188 71.0342 21.6772 71.0659 21.5015 71.0952C21.3306 71.1294 21.123 71.1465 20.8789 71.1465C20.5469 71.1465 20.2417 71.0806 19.9634 70.9487C19.6851 70.8169 19.4629 70.5972 19.2969 70.2896C19.1357 69.9771 19.0552 69.5571 19.0552 69.0298V61.1489ZM24.9512 63.0752V71H23.5889V63.0752H24.9512ZM23.4863 60.9731C23.4863 60.7534 23.5522 60.5679 23.6841 60.4165C23.8208 60.2651 24.021 60.1895 24.2847 60.1895C24.5435 60.1895 24.7412 60.2651 24.8779 60.4165C25.0195 60.5679 25.0903 60.7534 25.0903 60.9731C25.0903 61.1831 25.0195 61.3638 24.8779 61.5151C24.7412 61.6616 24.5435 61.7349 24.2847 61.7349C24.021 61.7349 23.8208 61.6616 23.6841 61.5151C23.5522 61.3638 23.4863 61.1831 23.4863 60.9731ZM30.415 71.1465C29.8633 71.1465 29.3628 71.0537 28.9136 70.8682C28.4692 70.6777 28.0859 70.4116 27.7637 70.0698C27.4463 69.728 27.2021 69.3228 27.0312 68.854C26.8604 68.3853 26.7749 67.8726 26.7749 67.3159V67.0083C26.7749 66.3638 26.8701 65.79 27.0605 65.2871C27.251 64.7793 27.5098 64.3496 27.8369 63.998C28.1641 63.6465 28.5352 63.3804 28.9502 63.1997C29.3652 63.019 29.7949 62.9287 30.2393 62.9287C30.8057 62.9287 31.2939 63.0264 31.7041 63.2217C32.1191 63.417 32.4585 63.6904 32.7222 64.042C32.9858 64.3887 33.1812 64.7988 33.3081 65.2725C33.4351 65.7412 33.4985 66.2539 33.4985 66.8105V67.4185H27.5806V66.3125H32.1436V66.21C32.124 65.8584 32.0508 65.5166 31.9238 65.1846C31.8018 64.8525 31.6064 64.5791 31.3379 64.3643C31.0693 64.1494 30.7031 64.042 30.2393 64.042C29.9316 64.042 29.6484 64.1079 29.3896 64.2397C29.1309 64.3667 28.9087 64.5571 28.7231 64.811C28.5376 65.0649 28.3936 65.375 28.291 65.7412C28.1885 66.1074 28.1372 66.5298 28.1372 67.0083V67.3159C28.1372 67.6919 28.1885 68.0459 28.291 68.3779C28.3984 68.7051 28.5522 68.9932 28.7524 69.2422C28.9575 69.4912 29.2041 69.6865 29.4922 69.8281C29.7852 69.9697 30.1172 70.0405 30.4883 70.0405C30.9668 70.0405 31.3721 69.9429 31.7041 69.7476C32.0361 69.5522 32.3267 69.291 32.5757 68.9639L33.396 69.6157C33.2251 69.8745 33.0078 70.1211 32.7441 70.3555C32.4805 70.5898 32.1558 70.7803 31.77 70.9268C31.3892 71.0732 30.9375 71.1465 30.415 71.1465ZM36.4355 64.7671V71H35.0806V63.0752H36.3623L36.4355 64.7671ZM36.1133 66.7373L35.5493 66.7153C35.5542 66.1733 35.6348 65.6729 35.791 65.2139C35.9473 64.75 36.167 64.3472 36.4502 64.0054C36.7334 63.6636 37.0703 63.3999 37.4609 63.2144C37.8564 63.0239 38.2935 62.9287 38.772 62.9287C39.1626 62.9287 39.5142 62.9824 39.8267 63.0898C40.1392 63.1924 40.4053 63.3584 40.625 63.5879C40.8496 63.8174 41.0205 64.1152 41.1377 64.4814C41.2549 64.8428 41.3135 65.2847 41.3135 65.8071V71H39.9512V65.7925C39.9512 65.3774 39.8901 65.0454 39.7681 64.7964C39.646 64.5425 39.4678 64.3594 39.2334 64.2471C38.999 64.1299 38.7109 64.0713 38.3691 64.0713C38.0322 64.0713 37.7246 64.1421 37.4463 64.2837C37.1729 64.4253 36.936 64.6206 36.7358 64.8696C36.5405 65.1187 36.3867 65.4043 36.2744 65.7266C36.167 66.0439 36.1133 66.3809 36.1133 66.7373ZM46.6895 63.0752V64.1152H42.4048V63.0752H46.6895ZM43.855 61.1489H45.21V69.0371C45.21 69.3057 45.2515 69.5083 45.3345 69.645C45.4175 69.7817 45.5249 69.8721 45.6567 69.916C45.7886 69.96 45.9302 69.9819 46.0815 69.9819C46.1938 69.9819 46.311 69.9722 46.4331 69.9526C46.5601 69.9282 46.6553 69.9087 46.7188 69.894L46.7261 71C46.6187 71.0342 46.4771 71.0659 46.3013 71.0952C46.1304 71.1294 45.9229 71.1465 45.6787 71.1465C45.3467 71.1465 45.0415 71.0806 44.7632 70.9487C44.4849 70.8169 44.2627 70.5972 44.0967 70.2896C43.9355 69.9771 43.855 69.5571 43.855 69.0298V61.1489ZM52.8931 68.8979C52.8931 68.7026 52.8491 68.522 52.7612 68.356C52.6782 68.1851 52.5049 68.0312 52.2412 67.8945C51.9824 67.7529 51.5918 67.6309 51.0693 67.5283C50.6299 67.4355 50.2319 67.3257 49.8755 67.1987C49.5239 67.0718 49.2236 66.918 48.9746 66.7373C48.7305 66.5566 48.5425 66.3442 48.4106 66.1001C48.2788 65.856 48.2129 65.5703 48.2129 65.2432C48.2129 64.9307 48.2812 64.6353 48.418 64.3569C48.5596 64.0786 48.7573 63.832 49.0112 63.6172C49.27 63.4023 49.5801 63.2339 49.9414 63.1118C50.3027 62.9897 50.7056 62.9287 51.1499 62.9287C51.7847 62.9287 52.3267 63.041 52.7759 63.2656C53.2251 63.4902 53.5693 63.7905 53.8086 64.1665C54.0479 64.5376 54.1675 64.9502 54.1675 65.4043H52.8125C52.8125 65.1846 52.7466 64.9722 52.6147 64.7671C52.4878 64.5571 52.2998 64.3838 52.0508 64.2471C51.8066 64.1104 51.5063 64.042 51.1499 64.042C50.7739 64.042 50.4688 64.1006 50.2344 64.2178C50.0049 64.3301 49.8364 64.4741 49.729 64.6499C49.6265 64.8257 49.5752 65.0112 49.5752 65.2065C49.5752 65.353 49.5996 65.4849 49.6484 65.6021C49.7021 65.7144 49.7949 65.8193 49.9268 65.917C50.0586 66.0098 50.2441 66.0977 50.4834 66.1807C50.7227 66.2637 51.0278 66.3467 51.3989 66.4297C52.0483 66.5762 52.583 66.752 53.0029 66.957C53.4229 67.1621 53.7354 67.4136 53.9404 67.7114C54.1455 68.0093 54.248 68.3706 54.248 68.7954C54.248 69.1421 54.1748 69.4595 54.0283 69.7476C53.8867 70.0356 53.6792 70.2847 53.4058 70.4946C53.1372 70.6997 52.8149 70.8608 52.439 70.978C52.0679 71.0903 51.6504 71.1465 51.1865 71.1465C50.4883 71.1465 49.8975 71.022 49.4141 70.7729C48.9307 70.5239 48.5645 70.2017 48.3154 69.8062C48.0664 69.4106 47.9419 68.9932 47.9419 68.5537H49.3042C49.3237 68.9248 49.4312 69.2202 49.6265 69.4399C49.8218 69.6548 50.061 69.8086 50.3442 69.9014C50.6274 69.9893 50.9082 70.0332 51.1865 70.0332C51.5576 70.0332 51.8677 69.9844 52.1167 69.8867C52.3706 69.7891 52.5635 69.6548 52.6953 69.4839C52.8271 69.313 52.8931 69.1177 52.8931 68.8979Z" fill="white"/>
<path d="M31.6095 15.9602C34.0795 15.9602 35.5995 12.3502 35.5995 10.0702C35.5995 8.1702 34.6495 5.8902 32.7495 5.8902C30.2795 5.8902 28.7595 9.50019 28.7595 11.7802C28.7595 13.6802 29.7095 15.9602 31.6095 15.9602ZM24.3895 15.9602C26.2895 15.9602 27.2395 13.6802 27.2395 11.7802C27.2395 9.31019 25.7195 5.7002 23.2495 5.7002C21.3495 5.7002 20.3995 7.98019 20.3995 9.88019C20.2095 12.3502 21.7295 15.9602 24.3895 15.9602ZM38.4495 14.0602C35.9795 14.0602 34.2695 17.4802 34.2695 19.9502C34.2695 21.6602 35.0295 23.3702 36.7395 23.3702C39.2095 23.3702 40.9195 19.9502 40.9195 17.4802C40.9195 15.7702 39.9695 14.0602 38.4495 14.0602ZM21.9195 19.9502C21.9195 17.4802 20.0195 14.0602 17.7395 14.0602C16.0295 14.0602 15.2695 15.7702 15.2695 17.4802C15.2695 19.9502 17.1695 23.3702 19.4495 23.3702C21.1595 23.3702 21.9195 21.6602 21.9195 19.9502ZM27.9995 19.5702C24.1995 19.5702 19.0695 25.6502 19.0695 29.8302C19.0695 31.7302 20.3995 32.3002 21.9195 32.3002C24.1995 32.3002 25.9095 30.7802 27.9995 30.7802C29.8995 30.7802 31.6095 32.3002 33.6995 32.3002C35.2195 32.3002 36.9295 31.9202 36.9295 29.8302C36.9295 25.6502 31.7995 19.5702 27.9995 19.5702Z" fill="white"/>
</svg>
