<svg width="43" height="66" viewBox="0 0 43 66" fill="none" xmlns="http://www.w3.org/2000/svg">
<path fill-rule="evenodd" clip-rule="evenodd" d="M14.7244 27.4816C20.1434 26.6899 23.8745 26.758 29.3006 27.5093C29.6936 27.5663 30.0526 27.7635 30.3115 28.0646C30.5704 28.3656 30.7116 28.7502 30.709 29.1473C30.709 29.5273 30.5784 29.8962 30.3424 30.1843C29.9313 30.6868 29.51 31.1809 29.0789 31.6663H31.1697C31.3012 31.5096 31.4334 31.3497 31.5672 31.1874C32.0367 30.6115 32.2929 29.8911 32.2923 29.1481C32.2923 27.5449 31.1222 26.1635 29.5175 25.9418C23.9632 25.1731 20.0809 25.0995 14.4957 25.9157C12.8743 26.1524 11.709 27.5552 11.709 29.1694C11.709 29.8859 11.9425 30.5944 12.3851 31.1684C12.5157 31.3378 12.6447 31.504 12.773 31.6671H14.8131C14.4121 31.187 14.0209 30.6987 13.6399 30.2026C13.4134 29.9055 13.2913 29.5421 13.2923 29.1686C13.2923 28.316 13.9051 27.6011 14.7244 27.4816ZM22.0007 19.7913C22.6244 19.7913 23.2421 19.6685 23.8184 19.4298C24.3947 19.1911 24.9183 18.8412 25.3594 18.4001C25.8005 17.959 26.1504 17.4354 26.3891 16.8591C26.6278 16.2828 26.7507 15.6651 26.7507 15.0413C26.7507 14.4176 26.6278 13.7999 26.3891 13.2236C26.1504 12.6473 25.8005 12.1237 25.3594 11.6826C24.9183 11.2415 24.3947 10.8916 23.8184 10.6529C23.2421 10.4142 22.6244 10.2913 22.0007 10.2913C20.7409 10.2913 19.5327 10.7918 18.6419 11.6826C17.7511 12.5734 17.2507 13.7816 17.2507 15.0413C17.2507 16.3011 17.7511 17.5093 18.6419 18.4001C19.5327 19.2909 20.7409 19.7913 22.0007 19.7913ZM22.0007 21.3747C23.6804 21.3747 25.2913 20.7074 26.479 19.5197C27.6667 18.332 28.334 16.721 28.334 15.0413C28.334 13.3616 27.6667 11.7507 26.479 10.563C25.2913 9.37527 23.6804 8.70801 22.0007 8.70801C20.3209 8.70801 18.71 9.37527 17.5223 10.563C16.3346 11.7507 15.6673 13.3616 15.6673 15.0413C15.6673 16.721 16.3346 18.332 17.5223 19.5197C18.71 20.7074 20.3209 21.3747 22.0007 21.3747Z" fill="white"/>
<path fill-rule="evenodd" clip-rule="evenodd" d="M22.0003 33.2498C29.8703 33.2498 36.2503 26.8698 36.2503 18.9998C36.2503 11.1299 29.8703 4.74984 22.0003 4.74984C14.1304 4.74984 7.75033 11.1299 7.75033 18.9998C7.75033 26.8698 14.1304 33.2498 22.0003 33.2498ZM22.0003 34.8332C30.7451 34.8332 37.8337 27.7446 37.8337 18.9998C37.8337 10.2551 30.7451 3.1665 22.0003 3.1665C13.2556 3.1665 6.16699 10.2551 6.16699 18.9998C6.16699 27.7446 13.2556 34.8332 22.0003 34.8332Z" fill="white"/>
<path d="M5.23291 57.8179H2.38379V56.668H5.23291C5.78467 56.668 6.23145 56.5801 6.57324 56.4043C6.91504 56.2285 7.16406 55.9844 7.32031 55.6719C7.48145 55.3594 7.56201 55.0029 7.56201 54.6025C7.56201 54.2363 7.48145 53.8921 7.32031 53.5698C7.16406 53.2476 6.91504 52.9888 6.57324 52.7935C6.23145 52.5933 5.78467 52.4932 5.23291 52.4932H2.71338V62H1.2998V51.3359H5.23291C6.03857 51.3359 6.71973 51.4751 7.27637 51.7534C7.83301 52.0317 8.25537 52.4175 8.54346 52.9106C8.83154 53.3989 8.97559 53.958 8.97559 54.5879C8.97559 55.2715 8.83154 55.855 8.54346 56.3384C8.25537 56.8218 7.83301 57.1904 7.27637 57.4443C6.71973 57.6934 6.03857 57.8179 5.23291 57.8179ZM11.9126 55.3203V62H10.5576V54.0752H11.876L11.9126 55.3203ZM14.3882 54.0312L14.3809 55.291C14.2686 55.2666 14.1611 55.252 14.0586 55.2471C13.9609 55.2373 13.8486 55.2324 13.7217 55.2324C13.4092 55.2324 13.1333 55.2812 12.894 55.3789C12.6548 55.4766 12.4521 55.6133 12.2861 55.7891C12.1201 55.9648 11.9883 56.1748 11.8906 56.4189C11.7979 56.6582 11.7368 56.9219 11.7075 57.21L11.3267 57.4297C11.3267 56.9512 11.373 56.502 11.4658 56.082C11.5635 55.6621 11.7124 55.291 11.9126 54.9688C12.1128 54.6416 12.3667 54.3877 12.6743 54.207C12.9868 54.0215 13.3579 53.9287 13.7876 53.9287C13.8853 53.9287 13.9976 53.9409 14.1245 53.9653C14.2515 53.9849 14.3394 54.0068 14.3882 54.0312ZM15.1353 58.1255V57.957C15.1353 57.3857 15.2183 56.856 15.3843 56.3677C15.5503 55.8745 15.7896 55.4473 16.1021 55.0859C16.4146 54.7197 16.793 54.4365 17.2373 54.2363C17.6816 54.0312 18.1797 53.9287 18.7314 53.9287C19.2881 53.9287 19.7886 54.0312 20.2329 54.2363C20.6821 54.4365 21.063 54.7197 21.3755 55.0859C21.6929 55.4473 21.9346 55.8745 22.1006 56.3677C22.2666 56.856 22.3496 57.3857 22.3496 57.957V58.1255C22.3496 58.6968 22.2666 59.2266 22.1006 59.7148C21.9346 60.2031 21.6929 60.6304 21.3755 60.9966C21.063 61.3579 20.6846 61.6411 20.2402 61.8462C19.8008 62.0464 19.3027 62.1465 18.7461 62.1465C18.1895 62.1465 17.689 62.0464 17.2446 61.8462C16.8003 61.6411 16.4194 61.3579 16.1021 60.9966C15.7896 60.6304 15.5503 60.2031 15.3843 59.7148C15.2183 59.2266 15.1353 58.6968 15.1353 58.1255ZM16.4902 57.957V58.1255C16.4902 58.521 16.5366 58.8945 16.6294 59.2461C16.7222 59.5928 16.8613 59.9004 17.0469 60.1689C17.2373 60.4375 17.4741 60.6499 17.7573 60.8062C18.0405 60.9575 18.3701 61.0332 18.7461 61.0332C19.1172 61.0332 19.4419 60.9575 19.7202 60.8062C20.0034 60.6499 20.2378 60.4375 20.4233 60.1689C20.6089 59.9004 20.748 59.5928 20.8408 59.2461C20.9385 58.8945 20.9873 58.521 20.9873 58.1255V57.957C20.9873 57.5664 20.9385 57.1978 20.8408 56.8511C20.748 56.4995 20.6064 56.1895 20.416 55.9209C20.2305 55.6475 19.9961 55.4326 19.7129 55.2764C19.4346 55.1201 19.1074 55.042 18.7314 55.042C18.3604 55.042 18.0332 55.1201 17.75 55.2764C17.4717 55.4326 17.2373 55.6475 17.0469 55.9209C16.8613 56.1895 16.7222 56.4995 16.6294 56.8511C16.5366 57.1978 16.4902 57.5664 16.4902 57.957ZM25.8579 62H24.5029V53.3867C24.5029 52.7861 24.6201 52.2783 24.8545 51.8633C25.0889 51.4482 25.4233 51.1333 25.8579 50.9185C26.2925 50.7036 26.8076 50.5962 27.4033 50.5962C27.7549 50.5962 28.0991 50.6401 28.436 50.728C28.7729 50.811 29.1196 50.916 29.4761 51.043L29.249 52.1855C29.0244 52.0977 28.7632 52.0146 28.4653 51.9365C28.1724 51.8535 27.8501 51.812 27.4985 51.812C26.9175 51.812 26.4976 51.9438 26.2388 52.2075C25.9849 52.4663 25.8579 52.8594 25.8579 53.3867V62ZM27.4766 54.0752V55.1152H23.2505V54.0752H27.4766ZM30.1426 54.0752V62H28.7876V54.0752H30.1426ZM33.8413 50.75V62H32.479V50.75H33.8413ZM39.3052 62.1465C38.7534 62.1465 38.2529 62.0537 37.8037 61.8682C37.3594 61.6777 36.9761 61.4116 36.6538 61.0698C36.3364 60.728 36.0923 60.3228 35.9214 59.854C35.7505 59.3853 35.665 58.8726 35.665 58.3159V58.0083C35.665 57.3638 35.7603 56.79 35.9507 56.2871C36.1411 55.7793 36.3999 55.3496 36.7271 54.998C37.0542 54.6465 37.4253 54.3804 37.8403 54.1997C38.2554 54.019 38.6851 53.9287 39.1294 53.9287C39.6958 53.9287 40.1841 54.0264 40.5942 54.2217C41.0093 54.417 41.3486 54.6904 41.6123 55.042C41.876 55.3887 42.0713 55.7988 42.1982 56.2725C42.3252 56.7412 42.3887 57.2539 42.3887 57.8105V58.4185H36.4707V57.3125H41.0337V57.21C41.0142 56.8584 40.9409 56.5166 40.814 56.1846C40.6919 55.8525 40.4966 55.5791 40.228 55.3643C39.9595 55.1494 39.5933 55.042 39.1294 55.042C38.8218 55.042 38.5386 55.1079 38.2798 55.2397C38.021 55.3667 37.7988 55.5571 37.6133 55.811C37.4277 56.0649 37.2837 56.375 37.1812 56.7412C37.0786 57.1074 37.0273 57.5298 37.0273 58.0083V58.3159C37.0273 58.6919 37.0786 59.0459 37.1812 59.3779C37.2886 59.7051 37.4424 59.9932 37.6426 60.2422C37.8477 60.4912 38.0942 60.6865 38.3823 60.8281C38.6753 60.9697 39.0073 61.0405 39.3784 61.0405C39.8569 61.0405 40.2622 60.9429 40.5942 60.7476C40.9263 60.5522 41.2168 60.291 41.4658 59.9639L42.2861 60.6157C42.1152 60.8745 41.8979 61.1211 41.6343 61.3555C41.3706 61.5898 41.0459 61.7803 40.6602 61.9268C40.2793 62.0732 39.8276 62.1465 39.3052 62.1465Z" fill="white"/>
</svg>
