<svg width="234" height="234" viewBox="0 0 234 234" fill="none" xmlns="http://www.w3.org/2000/svg">
<g clip-path="url(#clip0_9_39)">
<path d="M90.1621 91.1397L91.0951 91.0601C91.4329 91.023 91.7559 90.9023 92.0347 90.7089L92.028 90.7155C92.921 93.7774 94.0138 96.9983 95.3799 100.372C97.1325 104.786 98.8585 108.411 100.791 111.91L100.524 111.38C100.365 113.792 100.171 116.271 99.918 118.67C99.8071 120.086 99.5183 121.482 99.0584 122.826L99.0917 122.706C99.0117 122.739 98.8985 136.491 98.8985 136.491C98.9009 140.758 100.347 144.9 103.004 148.251C105.661 151.601 109.374 153.965 113.546 154.962L113.679 154.989C113.864 154.51 114.19 154.098 114.615 153.808C115.039 153.517 115.542 153.36 116.058 153.358H119.883C120.394 153.365 120.891 153.521 121.313 153.808C121.735 154.094 122.063 154.498 122.255 154.969L122.262 154.989C126.469 154.021 130.225 151.67 132.921 148.315C135.616 144.961 137.095 140.799 137.116 136.505V136.498C137.116 136.498 136.882 122.806 136.763 122.713C136.365 121.432 136.093 120.116 135.95 118.783L135.943 118.683C135.71 116.271 135.556 113.852 135.336 111.393C136.982 108.437 138.708 104.819 140.228 101.087L140.481 100.385C141.847 97.0116 142.907 93.7973 143.833 90.7288C144.107 90.9221 144.425 91.043 144.759 91.08H144.766L145.705 91.1596C146.838 91.2789 147.838 90.351 147.931 88.9128L148.944 76.1152V76.102C148.944 75.587 148.755 75.0898 148.412 74.7032C148.07 74.3166 147.598 74.0671 147.085 74.0011H146.958C147.846 67.3371 147.296 60.5616 145.346 54.1254L145.432 54.4634C143.553 50.3127 140.694 46.6743 137.099 43.8568C133.504 41.0393 129.278 39.126 124.781 38.2791L124.608 38.2526C122.427 37.8178 120.213 37.5695 117.99 37.5103H117.851C115.525 37.5518 113.209 37.8136 110.933 38.2924L111.173 38.2526C106.678 39.0824 102.449 40.9709 98.8384 43.7602C95.2281 46.5494 92.3421 50.1582 90.422 54.2844L90.3487 54.4634C88.4302 60.8748 87.9188 67.6213 88.8493 74.2463L88.8227 74.0011C88.3078 74.0565 87.8315 74.2987 87.4848 74.6814C87.1381 75.0641 86.9454 75.5604 86.9435 76.0755V76.1219L87.9564 88.9195C88.0497 90.3908 89.0626 91.2789 90.1555 91.1596L90.1621 91.1397Z" fill="black"/>
<path d="M189.36 175.838C188.894 155.691 186.868 151.131 185.775 148.043C185.342 146.804 184.989 138.427 171.075 132.992C162.545 129.652 151.536 129.586 142.22 125.669V136.564C142.211 142.15 140.248 147.558 136.669 151.863C133.09 156.167 128.117 159.1 122.602 160.158L122.449 160.184C122.349 160.772 122.044 161.307 121.589 161.694C121.134 162.082 120.556 162.298 119.956 162.305H119.836V170.523C119.836 174.38 121.377 178.078 124.119 180.805C126.86 183.532 130.579 185.064 134.457 185.064C138.334 185.064 142.053 183.532 144.795 180.805C147.537 178.078 149.077 174.38 149.077 170.523V164.784C147.065 164.49 145.23 163.474 143.921 161.926C142.611 160.378 141.917 158.406 141.97 156.384C142.024 154.362 142.82 152.429 144.209 150.951C145.599 149.474 147.484 148.554 149.509 148.365C151.535 148.177 153.559 148.733 155.2 149.929C156.841 151.125 157.984 152.877 158.413 154.854C158.842 156.832 158.528 158.897 157.53 160.66C156.532 162.422 154.919 163.76 152.996 164.419L152.936 164.439V170.835C152.936 175.711 150.988 180.387 147.521 183.835C144.055 187.282 139.353 189.219 134.45 189.219C129.548 189.219 124.846 187.282 121.379 183.835C117.912 180.387 115.965 175.711 115.965 170.835V170.503V170.517V162.226C115.394 162.187 114.853 161.958 114.43 161.575C114.007 161.193 113.726 160.679 113.632 160.118V160.105C108.112 159.058 103.129 156.134 99.5374 151.834C95.9461 147.535 93.9699 142.127 93.9472 136.538V125.556C84.5911 129.552 73.5158 129.632 64.9394 132.979C50.9853 138.407 50.6654 146.764 50.2389 148.023C49.1727 151.125 47.1202 155.665 46.6537 175.825C46.5738 178.476 46.6538 182.539 54.6904 186.091C72.1897 192.917 94.7335 195.038 116.958 196.563H119.09C141.361 195.051 163.871 192.937 181.357 186.091C189.36 182.559 189.434 178.523 189.36 175.845V175.838ZM91.5282 167.62H83.225V175.911H77.2942V167.647H68.991V161.749H77.2942V153.491H83.225V161.749H91.5282V167.62Z" fill="black"/>
<path d="M154.768 156.533V156.526C154.767 155.343 154.294 154.21 153.453 153.374C152.612 152.538 151.471 152.069 150.282 152.069C149.093 152.07 147.952 152.54 147.112 153.376C146.271 154.213 145.799 155.347 145.799 156.529C145.799 157.712 146.271 158.846 147.112 159.683C147.952 160.519 149.093 160.989 150.282 160.99C151.471 160.99 152.612 160.521 153.453 159.685C154.294 158.849 154.767 157.715 154.768 156.533Z" fill="black"/>
</g>
<circle cx="117" cy="117" r="112" stroke="black" stroke-width="10"/>
<defs>
<clipPath id="clip0_9_39">
<rect width="139.941" height="159.059" fill="white" transform="translate(46.6471 37.4706)"/>
</clipPath>
</defs>
</svg>
